<svg id="Layer_2" data-name="Layer 2" 
    xmlns="http://www.w3.org/2000/svg" viewBox="0 0 125.71 37.93">
    <defs>
        <style>.cls-1{fill:#000;}.cls-2{isolation:isolate;}</style>
    </defs>
    <title>reporta logo</title>
    <path id="rnd1" class="cls-1" d="M53.4,21.11c1.36-.12,2-.78,2-1.4s-.61-1.28-2-1.4a2.09,2.09,0,0,0-1.05-1.91,2.06,2.06,0,0,0,.24-2.17c1.22-.63,1.52-1.48,1.29-2s-1.05-.95-2.36-.54c-.52-1-1.19-1.39-1.73-1.36a2.05,2.05,0,0,0-.59-2.12c.88-1,.83-2,.42-2.39s-1.34-.47-2.39.42a2,2,0,0,0-2.1-.61c0-.53-.37-1.19-1.36-1.71.42-1.31,0-2.12-.54-2.36s-1.42.07-2,1.29A2,2,0,0,0,39,3.06c-.19-.51-.81-1-1.93-1.08-.12-1.37-.78-2-1.4-2s-1.28.61-1.4,2c-1.11.1-1.71.55-1.91,1a2.06,2.06,0,0,0-2.17-.24c-.63-1.21-1.48-1.54-2.05-1.29s-.95,1.05-.54,2.36c-1,.52-1.39,1.19-1.36,1.73a2.05,2.05,0,0,0-2.12.59c-1-.88-2-.83-2.39-.42s-.47,1.34.42,2.39a2,2,0,0,0-.61,2.1c-.54,0-1.19.37-1.71,1.36-1.31-.42-2.13,0-2.36.54s.07,1.42,1.29,2A2,2,0,0,0,19,16.37c-.51.18-1,.79-1.07,1.91-1.38.14-2,.8-2,1.42s.61,1.29,2,1.41A2.09,2.09,0,0,0,19,23a2.08,2.08,0,0,0-.24,2.17c-1.22.63-1.54,1.48-1.29,2s1.05.95,2.36.54c.52,1,1.19,1.39,1.73,1.36a2.05,2.05,0,0,0,.59,2.12c-.88,1-.83,2-.42,2.39s1.34.47,2.39-.42a2.05,2.05,0,0,0,2.1.61c0,.54.37,1.19,1.36,1.71-.42,1.31,0,2.13.54,2.36s1.42-.07,2-1.29a2,2,0,0,0,2.18-.26c.18.51.79,1,1.91,1.07.14,1.38.8,2,1.42,2s1.28-.61,1.4-2A2.09,2.09,0,0,0,39,36.39a2.07,2.07,0,0,0,2.17.24c.64,1.22,1.49,1.52,2.05,1.29s.95-1.05.54-2.36c1-.52,1.39-1.19,1.36-1.73a2.05,2.05,0,0,0,2.12-.59c1,.88,2,.83,2.39.42s.47-1.34-.42-2.39a2.05,2.05,0,0,0,.61-2.1c.54,0,1.19-.37,1.71-1.36,1.31.42,2.13,0,2.36-.54s-.07-1.42-1.29-2a2,2,0,0,0-.26-2.18c.51-.18,1-.79,1.07-1.91m-1.25,1a4.32,4.32,0,0,0,.17-1,2,2,0,0,0,1-.33,1.38,1.38,0,0,1-1.1,1.27Zm-.79,3.13c.92.46,1.16,1.05,1,1.44a.71.71,0,0,1-.42.37A2,2,0,0,1,50.62,27h0v0a1.53,1.53,0,0,1-1.12,1,1.49,1.49,0,0,1-.29-1.54v0h0c-1.19-.57-1.56-1.22-1.4-1.6s.88-.58,2.13-.14h0v0a1.49,1.49,0,0,1,1.31-.93,1.53,1.53,0,0,1,.11,1.47v.08Zm-3.28,5.5,0,0,0,0c.67.78.68,1.42.38,1.71a.69.69,0,0,1-.53.19,2,2,0,0,1-1.18-.56l0,0,0,0a1.54,1.54,0,0,1-1.4.46A1.48,1.48,0,0,1,45.61,31l0,0,0,0c-.88-1-1-1.72-.68-2s1-.19,2,.68l0,0,0,0a1.48,1.48,0,0,1,1.53-.32,1.51,1.51,0,0,1-.45,1.39ZM42.9,34.65h0v0c.32,1,.08,1.57-.31,1.73a.69.69,0,0,1-.56,0,2,2,0,0,1-.88-1v0h0a1.54,1.54,0,0,1-1.47-.11A1.48,1.48,0,0,1,40.51,34h0v0c-.44-1.25-.24-2,.14-2.12s1,.22,1.58,1.41v0h0a1.48,1.48,0,0,1,1.54.29c0,.36-.3.79-.94,1.12Zm-6.26,1.63h0v0c-.07,1-.53,1.48-.94,1.48a.7.7,0,0,1-.51-.24,2,2,0,0,1-.44-1.25v0h0a1.53,1.53,0,0,1-1.32-.67,1.48,1.48,0,0,1,1.32-.86h0v0c.07-1.32.53-1.91.94-1.91s.87.6.94,1.91v0h0a1.48,1.48,0,0,1,1.3.87,1.52,1.52,0,0,1-1.3.66ZM22.76,19.72a12.9,12.9,0,1,1,12.91,12.9h0A12.92,12.92,0,0,1,22.76,19.72ZM30.8,34a1.49,1.49,0,0,1,.88,1.29,1.53,1.53,0,0,1-1.47.11h0v0c-.46.92-1.05,1.16-1.44,1a.7.7,0,0,1-.37-.42,2,2,0,0,1,.07-1.31v0h0a1.53,1.53,0,0,1-1-1.12A1.49,1.49,0,0,1,29,33.25h0v0c.58-1.19,1.22-1.56,1.6-1.41s.58.88.14,2.12v0Zm-2.16-1a2.46,2.46,0,0,0-1.85,0v-.11a2.57,2.57,0,0,0-.71-1.6,2.54,2.54,0,0,0,.71-1.6,1.2,1.2,0,0,0-.1-.5,13.1,13.1,0,0,0,3.63,2.44c-.52,0-1.17.39-1.68,1.36Zm-4-.83,0,0,0,0c-.78.67-1.42.68-1.71.38a.7.7,0,0,1-.18-.56,2,2,0,0,1,.56-1.18l0,0,0,0a1.52,1.52,0,0,1-.46-1.4,1.48,1.48,0,0,1,1.53.32l0,0,0,0c1-.88,1.73-1,2-.68s.19,1-.68,2l0,0,0,0A1.48,1.48,0,0,1,26,32.56a1.43,1.43,0,0,1-1.39-.44Zm-5.69-5.51a.7.7,0,0,1,0-.56,2,2,0,0,1,1-.88h0v0a1.54,1.54,0,0,1,.11-1.47,1.48,1.48,0,0,1,1.3.88v0h0c1.25-.44,2-.24,2.12.14s-.21,1-1.39,1.57h0v0a1.49,1.49,0,0,1-.29,1.54,1.53,1.53,0,0,1-1.12-1v0h0c-1,.35-1.59.11-1.75-.28Zm-1.37-6.91a.7.7,0,0,1,.24-.51,2,2,0,0,1,1.25-.44h0v0a1.53,1.53,0,0,1,.67-1.32,1.48,1.48,0,0,1,.86,1.32v0h0c1.32.07,1.91.53,1.91.94s-.59.87-1.91.94h0v0A1.49,1.49,0,0,1,19.76,22a1.53,1.53,0,0,1-.67-1.32v0h0c-1-.07-1.48-.52-1.48-.94ZM20,14.22c-.92-.46-1.16-1.05-1-1.44a.7.7,0,0,1,.42-.37,2,2,0,0,1,1.31.07h0v0a1.53,1.53,0,0,1,1.12-1A1.48,1.48,0,0,1,22.13,13v0h0c1.19.57,1.56,1.22,1.4,1.6s-.88.58-2.13.14h0v0a1.48,1.48,0,0,1-1.29.9A1.54,1.54,0,0,1,20,14.26v0Zm3.29-5.53,0,0,0,0c-.67-.78-.67-1.42-.38-1.71a.7.7,0,0,1,.55-.19,2,2,0,0,1,1.18.56l0,0,0,0a1.54,1.54,0,0,1,1.4-.46,1.48,1.48,0,0,1-.32,1.53l0,0,0,0c.88,1,1,1.73.68,2s-1,.2-2-.68l0,0,0,0a1.48,1.48,0,0,1-1.53.32,1.43,1.43,0,0,1,.44-1.38Zm5.17-3.92h0v0c-.32-1-.08-1.57.31-1.73a.7.7,0,0,1,.56,0,2,2,0,0,1,.88,1v0h0a1.54,1.54,0,0,1,1.47.11,1.48,1.48,0,0,1-.88,1.29h0v0c.44,1.25.24,2-.14,2.12s-1-.22-1.59-1.4v0h0a1.48,1.48,0,0,1-1.54-.29c0-.37.3-.79.94-1.13Zm.24,1.66a2.54,2.54,0,0,0,1.2,1.26,1.25,1.25,0,0,0,.51.1,13,13,0,0,0-3.69,2.49,2.05,2.05,0,0,0-.59-2.12,2.42,2.42,0,0,0,.7-1.73l.12.06a2.58,2.58,0,0,0,1.75,0Zm-6.15,4.41a2.57,2.57,0,0,0,1.6-.71,2.53,2.53,0,0,0,1.6.71,1.22,1.22,0,0,0,.52-.11,13.1,13.1,0,0,0-2.46,3.67c0-.54-.37-1.2-1.36-1.71a2.45,2.45,0,0,0,0-1.85Zm-2.39,5.69a2.57,2.57,0,0,0,1.21-1.25,2.53,2.53,0,0,0,1.75,0A1.22,1.22,0,0,0,23.5,15a13,13,0,0,0-.86,4.33c-.19-.5-.8-1-1.91-1.05A2.44,2.44,0,0,0,20,16.59Zm0,6.2a2.58,2.58,0,0,0,.63-1.63,2.53,2.53,0,0,0,1.63-.63,1.21,1.21,0,0,0,.28-.42,13,13,0,0,0,.83,4.3,2.08,2.08,0,0,0-2.16-.24A2.46,2.46,0,0,0,20,22.82Zm2.29,4a2.53,2.53,0,0,0,1.27-1.2,1.25,1.25,0,0,0,.1-.49,13.06,13.06,0,0,0,2.44,3.66,2,2,0,0,0-2.07.61,2.42,2.42,0,0,0-1.73-.7s0-.08.06-.12a2.58,2.58,0,0,0-.06-1.75ZM34.68,3.14h0v0c.08-1,.53-1.48.95-1.48a.7.7,0,0,1,.51.24,2,2,0,0,1,.44,1.25v0h0A1.53,1.53,0,0,1,38,3.82a1.48,1.48,0,0,1-1.32.86h0v0c-.07,1.32-.53,1.92-.94,1.92s-.87-.59-.94-1.91v0h0a1.48,1.48,0,0,1-1.31-.88A1.49,1.49,0,0,1,34.68,3.14Zm5.85,2.3a1.49,1.49,0,0,1-.89-1.29A1.53,1.53,0,0,1,41.11,4h0V4c.46-.92,1.05-1.16,1.44-1a.71.71,0,0,1,.37.42,2,2,0,0,1-.07,1.31v0h0a1.53,1.53,0,0,1,1,1.12,1.49,1.49,0,0,1-1.54.29h0l0,0c-.58,1.19-1.22,1.56-1.6,1.4s-.58-.88-.14-2.13v0Zm2.16,1a2.46,2.46,0,0,0,1.85,0v.11a2.58,2.58,0,0,0,.71,1.6,2.54,2.54,0,0,0-.71,1.6,1.2,1.2,0,0,0,.11.51A13.07,13.07,0,0,0,41,7.82c.53,0,1.19-.37,1.7-1.36Zm4,.83,0,0,0,0c.78-.67,1.42-.68,1.71-.38a.69.69,0,0,1,.19.56,2,2,0,0,1-.56,1.18l0,0,0,0a1.52,1.52,0,0,1,.46,1.4A1.48,1.48,0,0,1,47,9.79l0,0,0,0c-1,.88-1.72,1-2,.68s-.19-1,.68-2l0,0,0,0a1.48,1.48,0,0,1-.32-1.53,1.43,1.43,0,0,1,1.4.43Zm5.69,5.52a.7.7,0,0,1,0,.56,2,2,0,0,1-1,.88h0v0a1.54,1.54,0,0,1-.11,1.47,1.48,1.48,0,0,1-1.3-.89v0h0c-1.25.44-2,.24-2.12-.14s.21-1,1.39-1.57h0v0a1.48,1.48,0,0,1,.29-1.54,1.54,1.54,0,0,1,1.12,1v0h0c1-.34,1.59-.1,1.74.28Zm1.37,6.91a.7.7,0,0,1-.24.51,2,2,0,0,1-1.25.44h0v0A1.53,1.53,0,0,1,51.56,22a1.49,1.49,0,0,1-.86-1.32v0h0c-1.32-.07-1.92-.53-1.92-.94s.59-.87,1.91-.94h0v0a1.48,1.48,0,0,1,.87-1.31,1.53,1.53,0,0,1,.67,1.32v0h0c1,.06,1.48.51,1.48.93Zm-2.52-3a2.58,2.58,0,0,0-.63,1.62,2.53,2.53,0,0,0-1.63.63,1.25,1.25,0,0,0-.27.42,12.92,12.92,0,0,0-.83-4.28,2.07,2.07,0,0,0,2.16.23,2.45,2.45,0,0,0,1.29,1.29Zm-2.3-4a2.54,2.54,0,0,0-1.25,1.2,1.25,1.25,0,0,0-.1.49,13,13,0,0,0-2.46-3.66,2.06,2.06,0,0,0,2.11-.6,2.42,2.42,0,0,0,1.73.7l-.06.12a2.59,2.59,0,0,0,0,1.75ZM42.66,33a2.52,2.52,0,0,0-1.2-1.25,1.25,1.25,0,0,0-.47-.1,13.06,13.06,0,0,0,3.63-2.44,2.08,2.08,0,0,0,.61,2.07,2.42,2.42,0,0,0-.7,1.73l-.12-.06a2.59,2.59,0,0,0-1.74,0Zm6.15-4.4a2.59,2.59,0,0,0-1.6.71,2.53,2.53,0,0,0-1.6-.71,1.25,1.25,0,0,0-.49.1A13.09,13.09,0,0,0,47.55,25c0,.53.39,1.17,1.36,1.68a2.46,2.46,0,0,0,0,1.85Zm2.39-5.69A2.57,2.57,0,0,0,50,24.12a2.53,2.53,0,0,0-1.75,0,1.25,1.25,0,0,0-.42.27,12.9,12.9,0,0,0,.83-4.29,2.09,2.09,0,0,0,1.9,1,2.43,2.43,0,0,0,.76,1.73Zm4-3.16a.65.65,0,0,1-.31.51,3,3,0,0,1-1.5.42,1.25,1.25,0,0,0,.11-1.76l-.11-.11c1.25.1,1.82.54,1.82.95Zm-2-1.06a2,2,0,0,0-1-.33,4.33,4.33,0,0,0-.17-1,1.38,1.38,0,0,1,1.12,1.3ZM51.8,15.59a4.35,4.35,0,0,0-.21-1,2,2,0,0,0,.75-.68,1.39,1.39,0,0,1-.54,1.63Zm2-3.37a.65.65,0,0,1-.1.59,3,3,0,0,1-1.25,1,1.25,1.25,0,0,0-.57-1.67l-.15-.06c1.22-.39,1.9-.2,2.06.17ZM51.53,12a2,2,0,0,0-1,0A4.25,4.25,0,0,0,50,11.2a1.39,1.39,0,0,1,1.55.8ZM49,9.72a4.37,4.37,0,0,0-.56-.8A2,2,0,0,0,48.87,8,1.39,1.39,0,0,1,49,9.72Zm.51-3.86a.65.65,0,0,1,.14.58,3,3,0,0,1-.76,1.37,1.25,1.25,0,0,0-1.16-1.32h-.16c1-.83,1.66-.92,2-.63Zm-2.14.64a2,2,0,0,0-.92.44,4.32,4.32,0,0,0-.8-.56,1.39,1.39,0,0,1,1.71.13ZM44.17,5.39a4.26,4.26,0,0,0-.83-.52,2,2,0,0,0,.05-1,1.38,1.38,0,0,1,.78,1.54Zm-1-3.77a.65.65,0,0,1,.34.48,3,3,0,0,1-.17,1.55,1.29,1.29,0,0,0-.71-.76,1.27,1.27,0,0,0-1,0c.56-1.12,1.18-1.47,1.56-1.31ZM41.43,3a2,2,0,0,0-.68.75,4.42,4.42,0,0,0-.95-.22A1.38,1.38,0,0,1,41.43,3ZM38.78,4a.44.44,0,0,0,0,.13,2.57,2.57,0,0,0,1.25,1.21,2.53,2.53,0,0,0,0,1.75,1.25,1.25,0,0,0,.29.42A12.92,12.92,0,0,0,36,6.68c.5-.19,1-.8,1.06-1.91A2.43,2.43,0,0,0,38.78,4ZM38,3.22a4.33,4.33,0,0,0-1-.17,2,2,0,0,0-.33-1A1.38,1.38,0,0,1,38,3.22ZM35.66.13a.65.65,0,0,1,.51.31,3,3,0,0,1,.42,1.5,1.25,1.25,0,0,0-1.76-.11l-.11.11C34.82.69,35.26.13,35.66.13Zm-1.06,2a2,2,0,0,0-.33,1,4.32,4.32,0,0,0-1,.17A1.38,1.38,0,0,1,34.6,2.09Zm-2,2,.08.08a2.57,2.57,0,0,0,1.63.63,2.54,2.54,0,0,0,.63,1.63,1.25,1.25,0,0,0,.44.29A12.91,12.91,0,0,0,31,7.55a2.07,2.07,0,0,0,.25-2.17,2.46,2.46,0,0,0,1.3-1.31Zm-1-.5a4.39,4.39,0,0,0-1,.22A2,2,0,0,0,29.92,3a1.39,1.39,0,0,1,1.63.54Zm-3.36-2a.65.65,0,0,1,.59.1,3,3,0,0,1,1,1.25,1.25,1.25,0,0,0-1.67.56L28,3.65C27.62,2.45,27.81,1.77,28.18,1.61ZM28,3.84a2,2,0,0,0,0,1,4.15,4.15,0,0,0-.83.52A1.39,1.39,0,0,1,28,3.84ZM25.67,6.38a4.34,4.34,0,0,0-.8.56A2,2,0,0,0,24,6.5a1.39,1.39,0,0,1,1.71-.13Zm-3.86-.51a.65.65,0,0,1,.58-.13,3,3,0,0,1,1.37.76,1.25,1.25,0,0,0-1.32,1.32c-.83-1-.92-1.66-.63-2ZM22.46,8a2,2,0,0,0,.42.92,4.33,4.33,0,0,0-.56.8A1.39,1.39,0,0,1,22.46,8ZM21.35,11.2a4.26,4.26,0,0,0-.52.83,2,2,0,0,0-1-.05A1.39,1.39,0,0,1,21.35,11.2Zm-3.77,1a.65.65,0,0,1,.49-.35,3,3,0,0,1,1.55.18,1.25,1.25,0,0,0-.77,1.58l.06.15C17.77,13.2,17.42,12.57,17.57,12.2ZM19,13.94a2,2,0,0,0,.75.68,4.27,4.27,0,0,0-.22.95A1.38,1.38,0,0,1,19,13.94Zm.18,3.4a4.3,4.3,0,0,0-.17,1,2,2,0,0,0-1,.33,1.39,1.39,0,0,1,1.12-1.29Zm-3.09,2.36a.65.65,0,0,1,.32-.51,3,3,0,0,1,1.5-.42,1.25,1.25,0,0,0-.11,1.76l.11.11C16.64,20.56,16.08,20.12,16.08,19.71Zm2,1.06a2,2,0,0,0,1,.33,4.3,4.3,0,0,0,.17,1,1.38,1.38,0,0,1-1.12-1.29Zm1.47,3.05a4.31,4.31,0,0,0,.21,1,2,2,0,0,0-.76.67,1.39,1.39,0,0,1,.54-1.63Zm-2,3.37a.66.66,0,0,1,.1-.59,3,3,0,0,1,1.25-1,1.25,1.25,0,0,0,.56,1.67l.14.06c-1.19.39-1.89.2-2-.17Zm2.23.23a2,2,0,0,0,1,0,4.33,4.33,0,0,0,.54.83,1.39,1.39,0,0,1-1.55-.8Zm2.54,2.28a4.33,4.33,0,0,0,.56.8,2,2,0,0,0-.42.92,1.38,1.38,0,0,1-.15-1.71Zm-.52,3.86a.65.65,0,0,1-.14-.58,3,3,0,0,1,.76-1.37,1.25,1.25,0,0,0,1.16,1.32h.16c-.95.83-1.66.92-1.95.63ZM24,32.91a2,2,0,0,0,.92-.44,4.35,4.35,0,0,0,.8.56A1.39,1.39,0,0,1,24,32.91ZM27.15,34a4.34,4.34,0,0,0,.83.52,2,2,0,0,0-.05,1A1.38,1.38,0,0,1,27.16,34Zm1,3.76a.65.65,0,0,1-.35-.48A3,3,0,0,1,28,35.76a1.25,1.25,0,0,0,1.58.78l.15-.06c-.56,1.12-1.19,1.47-1.56,1.32Zm1.74-1.41a2,2,0,0,0,.68-.75,4.38,4.38,0,0,0,.95.22,1.39,1.39,0,0,1-1.62.54Zm2.66-1a.44.44,0,0,0,0-.13A2.57,2.57,0,0,0,31.25,34a2.53,2.53,0,0,0,0-1.75,1.25,1.25,0,0,0-.27-.42,12.94,12.94,0,0,0,4.26.87,2.09,2.09,0,0,0-1,1.9,2.44,2.44,0,0,0-1.71.73Zm.76.83a4.31,4.31,0,0,0,1,.17,2,2,0,0,0,.33,1,1.38,1.38,0,0,1-1.31-1.12Zm2.36,3.09a.65.65,0,0,1-.51-.31,3,3,0,0,1-.42-1.5,1.25,1.25,0,0,0,1.76.11l.11-.11c-.11,1.25-.55,1.81-1,1.81Zm1.06-2a2,2,0,0,0,.33-1,4.31,4.31,0,0,0,1-.17,1.38,1.38,0,0,1-1.31,1.12Zm2-2-.08-.08a2.57,2.57,0,0,0-1.63-.63A2.54,2.54,0,0,0,36.44,33a1.25,1.25,0,0,0-.42-.27,13,13,0,0,0,4.26-.83,2.1,2.1,0,0,0-.22,2.15,2.46,2.46,0,0,0-1.28,1.3Zm1,.5a4.41,4.41,0,0,0,1-.22,2,2,0,0,0,.68.75,1.39,1.39,0,0,1-1.63-.53Zm3.37,2a.65.65,0,0,1-.59-.1,3,3,0,0,1-1-1.25,1.25,1.25,0,0,0,1.67-.57l.06-.15c.39,1.22.2,1.9-.17,2.06Zm.23-2.23a2,2,0,0,0,0-1,4.31,4.31,0,0,0,.83-.52,1.39,1.39,0,0,1-.8,1.53ZM45.65,33a4.33,4.33,0,0,0,.8-.56,2,2,0,0,0,.92.44,1.39,1.39,0,0,1-1.71.13Zm3.86.51a.64.64,0,0,1-.58.14,3,3,0,0,1-1.37-.76,1.25,1.25,0,0,0,1.32-1.32c.82,1,.91,1.66.62,2Zm-.64-2.15a2,2,0,0,0-.44-.92,4.39,4.39,0,0,0,.56-.8,1.39,1.39,0,0,1-.13,1.71ZM50,28.22a4.39,4.39,0,0,0,.52-.83,2,2,0,0,0,1,.05,1.38,1.38,0,0,1-1.53.78Zm3.76-1a.65.65,0,0,1-.48.35,3,3,0,0,1-1.54-.18,1.25,1.25,0,0,0,.78-1.58l-.06-.15c1.12.56,1.47,1.19,1.31,1.56Zm-1.41-1.74a2,2,0,0,0-.75-.68,4.39,4.39,0,0,0,.22-1,1.39,1.39,0,0,1,.54,1.63Z"/>
    <g class="cls-2">
        <path class="cls-1" d="M29.19,15.6a10.87,10.87,0,0,1,2-.17,3.3,3.3,0,0,1,2.34.66,2,2,0,0,1,.64,1.53,2.12,2.12,0,0,1-1.52,2.06v0a2,2,0,0,1,1.19,1.63,12.81,12.81,0,0,0,.62,2.22H33.37a10.48,10.48,0,0,1-.54-1.93c-.24-1.11-.67-1.53-1.62-1.57h-1v3.5h-1Zm1,3.68H31.3c1.11,0,1.82-.61,1.82-1.53s-.76-1.5-1.86-1.51a4.27,4.27,0,0,0-1,.1Z"/>
        <path class="cls-1" d="M36.68,15.5v3.38h3.91V15.5h1.05v8.08H40.59V19.79H36.68v3.79h-1V15.5Z"/>
    </g>
    <g class="cls-2">
        <path class="cls-1" d="M63.52,17.12l-1.88-2.71H59.57v2.71H57.32V7.39h4.21c2.6,0,4.23,1.35,4.23,3.53a3.17,3.17,0,0,1-2,3.07l2.18,3.13Zm-2.11-7.9H59.57v3.39h1.84c1.38,0,2.07-.64,2.07-1.7S62.79,9.22,61.41,9.22Z"/>
        <path class="cls-1" d="M74.67,14H69a2,2,0,0,0,2.14,1.5A2.54,2.54,0,0,0,73,14.77L74.19,16a3.92,3.92,0,0,1-3.09,1.21c-2.59,0-4.27-1.63-4.27-3.85a3.81,3.81,0,0,1,4-3.85,3.7,3.7,0,0,1,3.89,3.88C74.72,13.57,74.69,13.81,74.67,14ZM69,12.73h3.69a1.87,1.87,0,0,0-3.69,0Z"/>
        <path class="cls-1" d="M84.31,13.38a3.63,3.63,0,0,1-3.73,3.85,2.9,2.9,0,0,1-2.25-.9v3.49H76.16V9.64h2.07v.86a2.91,2.91,0,0,1,2.35-1A3.63,3.63,0,0,1,84.31,13.38Zm-2.2,0a1.91,1.91,0,1,0-3.81,0,1.91,1.91,0,1,0,3.81,0Z"/>
        <path class="cls-1" d="M85.2,13.38a4.12,4.12,0,1,1,4.12,3.85A3.85,3.85,0,0,1,85.2,13.38Zm6,0a1.92,1.92,0,1,0-3.82,0,1.92,1.92,0,1,0,3.82,0Z"/>
    </g>
    <g class="cls-2">
        <path class="cls-1" d="M99.5,9.53v2l-.49,0a1.84,1.84,0,0,0-2,2.09v3.53H94.86V9.64h2.07v1A3,3,0,0,1,99.5,9.53Z"/>
    </g>
    <g class="cls-2">
        <path class="cls-1" d="M105.82,16.76a3.1,3.1,0,0,1-1.77.47,2.47,2.47,0,0,1-2.8-2.68V11.47H100.1V9.81h1.15V8h2.17V9.81h1.86v1.67h-1.86v3a.87.87,0,0,0,.93,1,1.46,1.46,0,0,0,.88-.28Z"/>
        <path class="cls-1" d="M113.66,12.85v4.27h-2v-.93a2.46,2.46,0,0,1-2.28,1c-1.75,0-2.8-1-2.8-2.27s.93-2.24,3.21-2.24h1.72c0-.93-.56-1.47-1.72-1.47a3.6,3.6,0,0,0-2.16.7l-.78-1.52a5.75,5.75,0,0,1,3.23-.9C112.34,9.53,113.66,10.58,113.66,12.85Zm-2.17,1.91V14H110c-1,0-1.33.38-1.33.88s.46.9,1.22.9A1.6,1.6,0,0,0,111.49,14.76Z"/>
    </g>
    <g class="cls-2">
        <path class="cls-1" d="M65.89,22v9.73h-1V27.19H58.78v4.49h-1V22h1v4.34h6.09V22Z"/>
    </g>
    <g class="cls-2">
        <path class="cls-1" d="M75.49,28.33H69.38a2.71,2.71,0,0,0,2.88,2.54,2.88,2.88,0,0,0,2.24-1l.56.64A3.87,3.87,0,0,1,68.39,28,3.52,3.52,0,0,1,72,24.32,3.49,3.49,0,0,1,75.51,28C75.51,28.11,75.49,28.22,75.49,28.33Zm-6.12-.74h5.19a2.6,2.6,0,0,0-5.19,0Z"/>
    </g>
    <g class="cls-2">
        <path class="cls-1" d="M83.18,27.15v4.53h-.95V30.54a2.75,2.75,0,0,1-2.52,1.21c-1.65,0-2.67-.86-2.67-2.13s.72-2.07,2.82-2.07H82.2v-.44c0-1.25-.71-1.93-2.07-1.93a3.73,3.73,0,0,0-2.43.86l-.44-.74a4.64,4.64,0,0,1,3-1C82.11,24.32,83.18,25.26,83.18,27.15Zm-1,2.34v-1.2H79.9c-1.42,0-1.88.56-1.88,1.31S78.7,31,79.87,31A2.34,2.34,0,0,0,82.2,29.49Z"/>
    </g>
    <g class="cls-2">
        <path class="cls-1" d="M86.14,21.37h1V31.69h-1Z"/>
    </g>
    <g class="cls-2">
        <path class="cls-1" d="M94.15,31.24a2.35,2.35,0,0,1-1.54.51,1.94,1.94,0,0,1-2.14-2.13V25.21H89.16v-.83h1.31v-1.6h1v1.6h2.22v.83H91.45v4.37a1.17,1.17,0,0,0,1.27,1.34,1.64,1.64,0,0,0,1.08-.38Z"/>
        <path class="cls-1" d="M103,27.44v4.24h-1V27.54a2,2,0,0,0-2.2-2.34,2.4,2.4,0,0,0-2.56,2.64v3.84h-1V21.37h1v4.28a3.09,3.09,0,0,1,2.74-1.33A2.8,2.8,0,0,1,103,27.44Z"/>
    </g>
</svg>