<svg id="Layer_1" data-name="Layer 1" xmlns="http://www.w3.org/2000/svg" viewBox="0 0 16 16"><defs><style>.cls-1{fill:#fff;}.cls-2{isolation:isolate;}</style></defs><title>Reporta Favicon</title><path id="rnd1" class="cls-1" d="M15.2,8.57c.55,0,.8-.32.8-.57s-.25-.52-.8-.57a.85.85,0,0,0-.43-.78.83.83,0,0,0,.1-.88c.49-.26.62-.6.52-.83s-.43-.39-1-.22c-.21-.41-.48-.56-.7-.55a.83.83,0,0,0-.24-.86c.36-.43.34-.79.17-1s-.54-.19-1,.17a.83.83,0,0,0-.85-.25c0-.22-.15-.48-.55-.69.17-.53,0-.86-.22-1s-.58,0-.83.52a.83.83,0,0,0-.89.11C9.27,1,9,.84,8.57.8,8.52.25,8.25,0,8,0s-.52.25-.57.8c-.45,0-.69.22-.78.43a.84.84,0,0,0-.88-.1C5.52.64,5.17.5,4.94.61s-.39.43-.22,1c-.41.21-.56.48-.55.7a.83.83,0,0,0-.86.24c-.43-.36-.79-.34-1-.17s-.19.54.17,1a.83.83,0,0,0-.25.85c-.22,0-.48.15-.69.55-.53-.17-.86,0-1,.22s0,.58.52.83a.83.83,0,0,0,.1.89C1,6.72.85,7,.81,7.42.25,7.48,0,7.74,0,8s.25.52.8.57a.85.85,0,0,0,.43.77.84.84,0,0,0-.1.88c-.49.26-.62.6-.52.83s.43.39,1,.22c.21.41.48.56.7.55a.83.83,0,0,0,.24.86c-.36.43-.34.79-.17,1s.54.19,1-.17a.83.83,0,0,0,.85.25c0,.22.15.48.55.69-.17.53,0,.86.22,1s.58,0,.83-.52a.83.83,0,0,0,.89-.1c.07.21.32.4.78.44.06.56.33.81.58.81s.52-.25.57-.8a.85.85,0,0,0,.77-.43.84.84,0,0,0,.88.1c.26.49.6.62.83.53s.39-.43.22-1c.41-.21.56-.48.55-.7a.83.83,0,0,0,.86-.24c.43.36.79.34,1,.17s.19-.54-.17-1a.83.83,0,0,0,.25-.85c.22,0,.48-.15.69-.55.53.17.86,0,1-.22s0-.58-.52-.83a.83.83,0,0,0-.1-.89c.21-.07.4-.32.44-.78M14.69,9a1.76,1.76,0,0,0,.07-.39.82.82,0,0,0,.39-.14.56.56,0,0,1-.45.51Zm-.32,1.27c.37.19.47.43.41.58a.29.29,0,0,1-.17.15.81.81,0,0,1-.53,0h0a.62.62,0,0,1-.45.39.6.6,0,0,1-.12-.63h0c-.48-.23-.64-.5-.57-.65s.36-.23.86-.06h0a.6.6,0,0,1,.53-.38.62.62,0,0,1,0,.6h0ZM13,12.48h0c.27.32.27.58.15.69a.28.28,0,0,1-.21.08.81.81,0,0,1-.48-.23h0a.62.62,0,0,1-.57.19A.6.6,0,0,1,12,12.6h0v0c-.36-.4-.4-.7-.28-.82s.42-.08.82.28h0a.6.6,0,0,1,.62-.13.61.61,0,0,1-.18.56Zm-2.1,1.59h0c.13.39,0,.64-.12.7a.28.28,0,0,1-.23,0,.81.81,0,0,1-.36-.4h0a.63.63,0,0,1-.6,0,.6.6,0,0,1,.36-.53h0v0c-.18-.51-.1-.8.06-.86s.41.09.64.57v0h0a.6.6,0,0,1,.63.12c0,.15-.12.32-.38.45Zm-2.54.66h0v0c0,.41-.21.6-.38.6a.28.28,0,0,1-.21-.1.81.81,0,0,1-.18-.51v0h0a.62.62,0,0,1-.53-.27.6.6,0,0,1,.53-.35h0v0c0-.54.21-.77.38-.77s.35.24.38.78v0h0a.6.6,0,0,1,.53.35.62.62,0,0,1-.53.27ZM2.77,8A5.24,5.24,0,1,1,8,13.24H8A5.24,5.24,0,0,1,2.77,8ZM6,13.79a.6.6,0,0,1,.36.52.62.62,0,0,1-.6,0h0c-.19.37-.43.47-.58.41A.28.28,0,0,1,5,14.61a.81.81,0,0,1,0-.53h0a.62.62,0,0,1-.39-.45.6.6,0,0,1,.63-.12h0v0c.23-.48.5-.64.65-.57s.23.36.06.86v0Zm-.88-.41a1,1,0,0,0-.75,0v0a1,1,0,0,0-.29-.65A1,1,0,0,0,4.4,12a.49.49,0,0,0,0-.2,5.32,5.32,0,0,0,1.47,1c-.21,0-.47.16-.68.55ZM3.53,13h0c-.32.27-.58.27-.7.16A.28.28,0,0,1,2.73,13,.81.81,0,0,1,3,12.49H3a.62.62,0,0,1-.19-.57A.6.6,0,0,1,3.4,12h0c.4-.36.7-.4.82-.28s.08.42-.28.82v0H4a.6.6,0,0,1,.13.62A.58.58,0,0,1,3.53,13ZM1.22,10.8a.28.28,0,0,1,0-.23.81.81,0,0,1,.4-.36h0a.63.63,0,0,1,0-.6.6.6,0,0,1,.53.36h0c.51-.18.8-.1.86.06s-.08.4-.56.64h0a.6.6,0,0,1-.12.63.62.62,0,0,1-.45-.39h0c-.41.14-.65,0-.71-.11ZM.66,8a.28.28,0,0,1,.1-.21.81.81,0,0,1,.51-.18h0a.62.62,0,0,1,.27-.53.6.6,0,0,1,.35.53h0c.54,0,.77.21.77.38s-.24.35-.77.38h0a.6.6,0,0,1-.35.53.62.62,0,0,1-.27-.53h0c-.42,0-.6-.21-.6-.38Zm1-2.23c-.37-.19-.47-.43-.41-.58A.28.28,0,0,1,1.39,5a.81.81,0,0,1,.53,0h0a.62.62,0,0,1,.45-.39.6.6,0,0,1,.12.63h0c.48.23.63.5.57.65s-.36.23-.86.06h0a.6.6,0,0,1-.53.36.62.62,0,0,1,0-.6h0ZM3,3.53H3c-.27-.32-.27-.58-.16-.7A.28.28,0,0,1,3,2.73.81.81,0,0,1,3.51,3h0a.62.62,0,0,1,.57-.19A.6.6,0,0,1,4,3.4H4c.36.4.4.7.28.82s-.42.08-.82-.28h0a.6.6,0,0,1-.62.13A.58.58,0,0,1,3,3.53Zm2.1-1.59h0c-.13-.39,0-.64.12-.7a.28.28,0,0,1,.23,0,.81.81,0,0,1,.36.4h0a.63.63,0,0,1,.6,0A.6.6,0,0,1,6,2.22H6v0c.18.51.1.8-.06.86S5.56,3,5.32,2.53v0h0a.6.6,0,0,1-.63-.12c0-.15.12-.32.38-.46Zm.1.68a1,1,0,0,0,.49.51.51.51,0,0,0,.21,0,5.29,5.29,0,0,0-1.5,1,.83.83,0,0,0-.24-.86,1,1,0,0,0,.28-.7l.05,0a1,1,0,0,0,.71,0ZM2.67,4.4a1,1,0,0,0,.65-.29A1,1,0,0,0,4,4.4a.49.49,0,0,0,.21,0,5.32,5.32,0,0,0-1,1.49c0-.22-.15-.49-.55-.7a1,1,0,0,0,0-.75Zm-1,2.31a1,1,0,0,0,.49-.51,1,1,0,0,0,.71,0,.49.49,0,0,0,.17-.12,5.25,5.25,0,0,0-.35,1.76c-.08-.2-.33-.39-.77-.43a1,1,0,0,0-.29-.7Zm0,2.52a1,1,0,0,0,.26-.66,1,1,0,0,0,.66-.25.49.49,0,0,0,.11-.17,5.26,5.26,0,0,0,.34,1.75.84.84,0,0,0-.88-.1,1,1,0,0,0-.53-.53Zm.93,1.61a1,1,0,0,0,.51-.49.51.51,0,0,0,0-.2,5.3,5.3,0,0,0,1,1.49.83.83,0,0,0-.84.25,1,1,0,0,0-.7-.28s0,0,0-.05a1,1,0,0,0,0-.71Zm5-9.57h0v0c0-.42.22-.6.38-.6a.28.28,0,0,1,.21.1.81.81,0,0,1,.18.51v0h0a.62.62,0,0,1,.53.27.6.6,0,0,1-.53.35h0v0c0,.54-.21.78-.38.78s-.35-.24-.38-.77v0h0a.6.6,0,0,1-.53-.36A.6.6,0,0,1,7.6,1.27ZM10,2.21a.6.6,0,0,1-.36-.52.62.62,0,0,1,.6,0h0c.19-.37.43-.47.58-.41a.29.29,0,0,1,.15.17.81.81,0,0,1,0,.53h0a.62.62,0,0,1,.39.45.6.6,0,0,1-.63.12h0v0c-.23.48-.5.63-.65.57S9.8,2.73,10,2.23v0Zm.88.41a1,1,0,0,0,.75,0v0a1,1,0,0,0,.29.65A1,1,0,0,0,11.6,4a.49.49,0,0,0,0,.21,5.31,5.31,0,0,0-1.49-1c.21,0,.48-.15.69-.55ZM12.48,3h0c.32-.27.58-.27.69-.15a.28.28,0,0,1,.08.23.81.81,0,0,1-.23.48h0a.62.62,0,0,1,.19.57A.6.6,0,0,1,12.6,4h0c-.4.36-.7.4-.82.28s-.08-.42.28-.82h0a.6.6,0,0,1-.13-.62.58.58,0,0,1,.57.18ZM14.79,5.2a.28.28,0,0,1,0,.23.81.81,0,0,1-.4.36h0a.63.63,0,0,1,0,.6A.6.6,0,0,1,13.79,6h0c-.51.18-.8.1-.86-.06s.08-.4.56-.64h0a.6.6,0,0,1,.12-.63.62.62,0,0,1,.45.39h0c.41-.14.64,0,.71.12ZM15.34,8a.28.28,0,0,1-.1.21.81.81,0,0,1-.51.18h0a.62.62,0,0,1-.27.53.6.6,0,0,1-.35-.53h0c-.54,0-.78-.21-.78-.38s.24-.35.78-.38h0a.6.6,0,0,1,.35-.53.62.62,0,0,1,.27.53h0c.42,0,.6.21.6.38Zm-1-1.23a1,1,0,0,0-.26.66,1,1,0,0,0-.66.26.51.51,0,0,0-.11.17A5.24,5.24,0,0,0,13,6.12a.84.84,0,0,0,.88.09,1,1,0,0,0,.52.52Zm-.93-1.61a1,1,0,0,0-.51.49.51.51,0,0,0,0,.2,5.29,5.29,0,0,0-1-1.49.84.84,0,0,0,.86-.24,1,1,0,0,0,.7.28l0,0a1,1,0,0,0,0,.71Zm-2.54,8.22a1,1,0,0,0-.49-.51.51.51,0,0,0-.19,0,5.3,5.3,0,0,0,1.47-1,.84.84,0,0,0,.25.84,1,1,0,0,0-.28.7l-.05,0a1.05,1.05,0,0,0-.71,0Zm2.49-1.79a1,1,0,0,0-.65.29A1,1,0,0,0,12,11.6a.51.51,0,0,0-.2,0,5.31,5.31,0,0,0,1-1.47c0,.22.16.48.55.68a1,1,0,0,0,0,.75Zm1-2.31a1,1,0,0,0-.49.51,1,1,0,0,0-.71,0,.51.51,0,0,0-.17.11,5.24,5.24,0,0,0,.34-1.74.85.85,0,0,0,.77.42,1,1,0,0,0,.31.7ZM15.95,8a.26.26,0,0,1-.13.21,1.21,1.21,0,0,1-.61.17.51.51,0,0,0,0-.71l0,0c.51,0,.74.22.74.39Zm-.8-.43a.82.82,0,0,0-.39-.14A1.76,1.76,0,0,0,14.69,7a.56.56,0,0,1,.46.53Zm-.59-1.24a1.77,1.77,0,0,0-.09-.39.82.82,0,0,0,.3-.27.56.56,0,0,1-.22.66ZM15.34,5a.26.26,0,0,1,0,.24,1.2,1.2,0,0,1-.51.39.51.51,0,0,0-.23-.68l-.06,0c.49-.16.77-.08.84.07Zm-.9-.09a.82.82,0,0,0-.41,0,1.73,1.73,0,0,0-.22-.34.56.56,0,0,1,.63.32Zm-1-.92a1.77,1.77,0,0,0-.23-.32.82.82,0,0,0,.18-.37.56.56,0,0,1,.05.69Zm.21-1.57a.26.26,0,0,1,.06.24,1.2,1.2,0,0,1-.31.56.51.51,0,0,0-.47-.54h-.06c.39-.34.68-.37.79-.25Zm-.87.26a.82.82,0,0,0-.37.18,1.76,1.76,0,0,0-.32-.23.56.56,0,0,1,.69.05Zm-1.3-.45A1.73,1.73,0,0,0,11.12,2a.83.83,0,0,0,0-.41.56.56,0,0,1,.32.62ZM11,.66a.26.26,0,0,1,.14.19,1.2,1.2,0,0,1-.07.63.52.52,0,0,0-.29-.31.52.52,0,0,0-.42,0c.23-.45.48-.6.63-.53Zm-.71.57a.82.82,0,0,0-.27.3,1.79,1.79,0,0,0-.39-.09.56.56,0,0,1,.66-.22Zm-1.08.41,0,.05a1,1,0,0,0,.51.49,1,1,0,0,0,0,.71.51.51,0,0,0,.12.17,5.24,5.24,0,0,0-1.76-.35c.2-.08.39-.32.43-.78a1,1,0,0,0,.71-.29ZM9,1.31a1.76,1.76,0,0,0-.39-.07A.82.82,0,0,0,8.43.85.56.56,0,0,1,9,1.31ZM8,.05a.26.26,0,0,1,.21.13,1.21,1.21,0,0,1,.17.61.51.51,0,0,0-.71,0l0,0C7.66.28,7.84.05,8,.05Zm-.43.8a.81.81,0,0,0-.14.39A1.75,1.75,0,0,0,7,1.31.56.56,0,0,1,7.57.85Zm-.83.8,0,0a1,1,0,0,0,.66.26,1,1,0,0,0,.26.66.51.51,0,0,0,.18.12,5.24,5.24,0,0,0-1.75.35.84.84,0,0,0,.1-.88,1,1,0,0,0,.53-.53Zm-.41-.2a1.78,1.78,0,0,0-.39.09.81.81,0,0,0-.27-.31.56.56,0,0,1,.66.22ZM5,.65a.26.26,0,0,1,.24,0,1.2,1.2,0,0,1,.39.51.51.51,0,0,0-.68.23l0,.06C4.73,1,4.81.72,5,.65Zm-.09.9a.82.82,0,0,0,0,.41,1.68,1.68,0,0,0-.34.21.56.56,0,0,1,.32-.62Zm-.92,1a1.76,1.76,0,0,0-.32.23.82.82,0,0,0-.37-.18.56.56,0,0,1,.69-.05ZM2.38,2.38a.26.26,0,0,1,.24-.05,1.2,1.2,0,0,1,.56.31.51.51,0,0,0-.54.54c-.34-.39-.37-.68-.25-.79Zm.26.87a.82.82,0,0,0,.17.37,1.76,1.76,0,0,0-.23.32.56.56,0,0,1,.06-.69ZM2.19,4.55A1.73,1.73,0,0,0,2,4.88a.83.83,0,0,0-.41,0A.56.56,0,0,1,2.19,4.55ZM.66,5a.26.26,0,0,1,.2-.14,1.2,1.2,0,0,1,.63.07.51.51,0,0,0-.31.64l0,.06C.74,5.36.6,5.1.66,5Zm.57.71a.82.82,0,0,0,.3.27,1.73,1.73,0,0,0-.09.39.56.56,0,0,1-.22-.66ZM1.31,7a1.74,1.74,0,0,0-.07.39.82.82,0,0,0-.39.14A.56.56,0,0,1,1.31,7ZM.05,8a.26.26,0,0,1,.13-.21,1.21,1.21,0,0,1,.61-.17.51.51,0,0,0,0,.71l0,0C.28,8.34.05,8.17.05,8Zm.8.43a.82.82,0,0,0,.39.14A1.74,1.74,0,0,0,1.31,9a.56.56,0,0,1-.46-.53Zm.6,1.24a1.75,1.75,0,0,0,.09.39.81.81,0,0,0-.31.27.56.56,0,0,1,.22-.66ZM.66,11a.27.27,0,0,1,0-.24,1.21,1.21,0,0,1,.51-.39.51.51,0,0,0,.23.68l.06,0C1,11.27.72,11.19.66,11Zm.9.09a.82.82,0,0,0,.41,0,1.76,1.76,0,0,0,.22.34.56.56,0,0,1-.63-.32Zm1,.92a1.76,1.76,0,0,0,.23.32.82.82,0,0,0-.17.37.56.56,0,0,1-.06-.69Zm-.21,1.56a.26.26,0,0,1-.06-.23,1.2,1.2,0,0,1,.31-.56.51.51,0,0,0,.47.54h.06c-.39.34-.68.37-.79.25Zm.87-.26a.82.82,0,0,0,.37-.18,1.77,1.77,0,0,0,.32.23.56.56,0,0,1-.69-.05Zm1.3.45a1.76,1.76,0,0,0,.34.21.83.83,0,0,0,0,.41.56.56,0,0,1-.32-.62ZM5,15.34a.26.26,0,0,1-.14-.19,1.2,1.2,0,0,1,.07-.63.51.51,0,0,0,.64.32l.06,0c-.23.45-.48.6-.63.53Zm.71-.57a.82.82,0,0,0,.27-.3,1.78,1.78,0,0,0,.39.09.56.56,0,0,1-.66.22Zm1.08-.41,0-.05a1,1,0,0,0-.51-.49,1,1,0,0,0,0-.71.51.51,0,0,0-.11-.17,5.25,5.25,0,0,0,1.73.35.85.85,0,0,0-.42.77,1,1,0,0,0-.69.3Zm.31.34a1.75,1.75,0,0,0,.39.07.82.82,0,0,0,.14.39A.56.56,0,0,1,7,14.69Zm1,1.26a.26.26,0,0,1-.21-.13,1.21,1.21,0,0,1-.17-.61.51.51,0,0,0,.71,0l0,0c0,.51-.22.74-.39.74Zm.43-.8a.82.82,0,0,0,.14-.39A1.75,1.75,0,0,0,9,14.69a.56.56,0,0,1-.53.45Zm.83-.8,0,0a1,1,0,0,0-.66-.26,1,1,0,0,0-.26-.66.51.51,0,0,0-.17-.11A5.26,5.26,0,0,0,9.87,13a.85.85,0,0,0-.09.87,1,1,0,0,0-.52.53Zm.41.2a1.79,1.79,0,0,0,.39-.09.81.81,0,0,0,.27.3.56.56,0,0,1-.66-.21Zm1.37.79a.26.26,0,0,1-.24,0,1.2,1.2,0,0,1-.39-.51.51.51,0,0,0,.68-.23l0-.06c.16.49.08.77-.07.84Zm.09-.9a.82.82,0,0,0,0-.41,1.75,1.75,0,0,0,.34-.21.56.56,0,0,1-.32.62Zm.92-1a1.76,1.76,0,0,0,.32-.23.82.82,0,0,0,.37.18.56.56,0,0,1-.7.05Zm1.57.21a.26.26,0,0,1-.23.06,1.2,1.2,0,0,1-.56-.31.51.51,0,0,0,.54-.54c.33.39.37.68.25.79Zm-.26-.87a.82.82,0,0,0-.18-.37,1.78,1.78,0,0,0,.23-.32.56.56,0,0,1-.05.69Zm.45-1.3a1.78,1.78,0,0,0,.21-.34.83.83,0,0,0,.41,0,.56.56,0,0,1-.62.32ZM15.34,11a.26.26,0,0,1-.19.14,1.2,1.2,0,0,1-.63-.07.51.51,0,0,0,.32-.64l0-.06c.45.23.6.48.53.63Zm-.57-.71a.82.82,0,0,0-.3-.27,1.78,1.78,0,0,0,.09-.39.56.56,0,0,1,.22.66Z"/><g class="cls-2"><path class="cls-1" d="M5.37,6.33a4.41,4.41,0,0,1,.81-.07,1.34,1.34,0,0,1,.95.27.82.82,0,0,1,.26.62A.86.86,0,0,1,6.77,8h0a.82.82,0,0,1,.48.66,5.2,5.2,0,0,0,.25.9H7.07a4.25,4.25,0,0,1-.22-.78c-.1-.45-.27-.62-.66-.64H5.8V9.57H5.37ZM5.8,7.83h.43c.45,0,.74-.25.74-.62s-.31-.61-.75-.61a1.74,1.74,0,0,0-.42,0Z"/><path class="cls-1" d="M8.41,6.29V7.66H10V6.29h.43V9.57H10V8H8.41V9.57H8V6.29Z"/></g></svg>